<?xml version="1.0" encoding="UTF-8"?><svg xmlns="http://www.w3.org/2000/svg" xmlns:xlink="http://www.w3.org/1999/xlink" height="408.1" preserveAspectRatio="xMidYMid meet" version="1.0" viewBox="0.0 0.0 500.0 408.1" width="500.0" zoomAndPan="magnify"><defs><clipPath id="a"><path d="M 0 0 L 500 0 L 500 408.078125 L 0 408.078125 Z M 0 0"/></clipPath></defs><g><g clip-path="url(#a)" id="change1_1"><path d="M 30.714844 95.488281 C 30.714844 78.082031 44.882812 63.921875 62.292969 63.921875 L 175.289062 63.921875 L 196.230469 32.476562 C 196.816406 31.792969 198.636719 30.820312 199.34375 30.714844 L 300.476562 30.710938 C 301.351562 30.816406 303.144531 31.769531 303.625 32.316406 L 324.703125 63.921875 L 437.722656 63.921875 C 455.125 63.921875 469.285156 78.082031 469.285156 95.488281 L 469.285156 345.78125 C 469.285156 363.195312 455.125 377.367188 437.722656 377.367188 L 62.292969 377.367188 C 44.882812 377.367188 30.714844 363.195312 30.714844 345.78125 Z M 62.292969 408.078125 L 437.722656 408.078125 C 472.0625 408.078125 500 380.136719 500 345.78125 L 500 95.488281 C 500 61.148438 472.0625 33.207031 437.722656 33.207031 L 341.144531 33.207031 L 329.199219 15.300781 C 323.320312 6.433594 311.316406 0.00390625 300.664062 0.00390625 L 199.34375 0.00390625 C 188.546875 0.00390625 176.816406 6.273438 170.789062 15.273438 L 158.839844 33.207031 L 62.292969 33.207031 C 27.945312 33.207031 0 61.148438 0 95.488281 L 0 345.78125 C 0 380.136719 27.945312 408.078125 62.292969 408.078125" fill="inherit"/></g><g id="change1_2"><path d="M 250 115.558594 C 307.953125 115.558594 355.101562 162.703125 355.101562 220.65625 C 355.101562 278.59375 307.953125 325.730469 250 325.730469 C 192.054688 325.730469 144.90625 278.59375 144.90625 220.65625 C 144.90625 162.703125 192.054688 115.558594 250 115.558594 Z M 250 356.445312 C 324.886719 356.445312 385.8125 295.527344 385.8125 220.65625 C 385.8125 145.769531 324.886719 84.84375 250 84.84375 C 175.113281 84.84375 114.191406 145.769531 114.191406 220.65625 C 114.191406 295.527344 175.113281 356.445312 250 356.445312" fill="inherit"/></g><g id="change2_1"><path d="M 250 294.3125 C 290.6875 294.3125 323.675781 261.332031 323.675781 220.652344 C 323.675781 179.957031 290.6875 146.976562 250 146.976562 C 209.320312 146.976562 176.324219 179.957031 176.324219 220.652344 C 176.324219 261.332031 209.320312 294.3125 250 294.3125" fill="#070605"/></g><g id="change1_3"><path d="M 88.175781 97.578125 C 97.105469 97.578125 104.367188 104.839844 104.367188 113.769531 C 104.367188 122.699219 97.105469 129.964844 88.175781 129.964844 C 79.238281 129.964844 71.976562 122.699219 71.976562 113.769531 C 71.976562 104.839844 79.238281 97.578125 88.175781 97.578125 Z M 88.175781 150.445312 C 108.398438 150.445312 124.851562 133.992188 124.851562 113.769531 C 124.851562 93.550781 108.398438 77.09375 88.175781 77.09375 C 67.949219 77.09375 51.492188 93.550781 51.492188 113.769531 C 51.492188 133.992188 67.949219 150.445312 88.175781 150.445312" fill="inherit"/></g></g></svg>